# xmcd
#
# Track frame offsets:
# 150
# 2116
# 11153
# 22404
# 33986
# 35533
# 42517
# 43398
# 52265
# 56063
# 71887
# 73852
# 82801
# 87362
# 102779
# 104619
# 111744
# 117778
# 119551
# 139067
# 140240
# 148671
# 150430
# 156639
# 159531
# 169623
# 176716
# 179006
# 187026
# 188956
# 205503
# 206765
# 216713
# 218492
# 226723
# 229602
# 238575
# 239376
# 245595
# 255443
# 256032
# 263911
# 276118
# 278508
# 289749
# 290956
# 298563
# 304817
# 305687
# 314524
# 315293
# 329408
# 330760
# 339129
# 342334
# 352853
#
# Disc length: 4761 seconds
#
#
# Revision: 9
# Processed by: cddbd v1.5.2PL0 Copyright (c) Steve Scherf et al.
# Submitted via: FreeRIP 2.96 
#
DISCID=6b129738
DTITLE=cesar menotti and fabiano - ao vivo no observatorio
DYEAR=2005
DGENRE=Other
TTITLE0=fala
TTITLE1=voce vai ver
TTITLE2=ligacao urbana
TTITLE3=como um anjo
TTITLE4=fala
TTITLE5=vem ficar comigo
TTITLE6=fala
TTITLE7=temporal de amor
TTITLE8=fala
TTITLE9=evidencias
TTITLE10=fala
TTITLE11=sem medo de ser feliz
TTITLE12=fala
TTITLE13=telefone mudo
TTITLE14=fala
TTITLE15=boate azul
TTITLE16=fio de cabelo
TTITLE17=fala
TTITLE18=deixa eu te amar
TTITLE19=fala
TTITLE20=ela e demais
TTITLE21=fala
TTITLE22=pense em mim
TTITLE23=fala
TTITLE24=to por ai
TTITLE25=nao olhe assim
TTITLE26=fala
TTITLE27=coracao ta em pedacos
TTITLE28=fala
TTITLE29=dois coracoes e uma historia
TTITLE30=fala
TTITLE31=passou da conta
TTITLE32=fala
TTITLE33=pagina de amigos
TTITLE34=fala
TTITLE35=ainda ontem chorei de saudade
TTITLE36=fala
TTITLE37=entre tapas e beijos
TTITLE38=e o amor
TTITLE39=fala
TTITLE40=60 dias apaixonado
TTITLE41=vida cigana
TTITLE42=fala
TTITLE43=tocando em frente
TTITLE44=fala
TTITLE45=nova york
TTITLE46=24 horas de amor
TTITLE47=fala
TTITLE48=vida vazia
TTITLE49=fala
TTITLE50=caso marcado
TTITLE51=fala
TTITLE52=fica comigo
TTITLE53=fala
TTITLE54=saudade da minha terra
TTITLE55=o menino da porteira
EXTD=
EXTT0=
EXTT1=
EXTT2=
EXTT3=
EXTT4=
EXTT5=
EXTT6=
EXTT7=
EXTT8=
EXTT9=
EXTT10=
EXTT11=
EXTT12=
EXTT13=
EXTT14=
EXTT15=
EXTT16=
EXTT17=
EXTT18=
EXTT19=
EXTT20=
EXTT21=
EXTT22=
EXTT23=
EXTT24=
EXTT25=
EXTT26=
EXTT27=
EXTT28=
EXTT29=
EXTT30=
EXTT31=
EXTT32=
EXTT33=
EXTT34=
EXTT35=
EXTT36=
EXTT37=
EXTT38=
EXTT39=
EXTT40=
EXTT41=
EXTT42=
EXTT43=
EXTT44=
EXTT45=
EXTT46=
EXTT47=
EXTT48=
EXTT49=
EXTT50=
EXTT51=
EXTT52=
EXTT53=
EXTT54=
EXTT55=
PLAYORDER=
